<svg xmlns="http://www.w3.org/2000/svg" width="171" height="32" viewBox="0 0 171 32" fill="none">
<g clip-path="url(#clip0_14_254)">
<path d="M10.0704 10.3073L12.4736 11.8622C12.7341 12.0757 12.9162 12.3449 13.0002 12.6721L12.9904 21.0048C12.9003 21.3431 12.7215 21.621 12.4521 21.849L5.98228 26.8982C5.68864 26.9197 5.44169 26.7167 5.44635 26.421L5.4809 18.3146L5.77407 17.8246C6.98784 16.7098 8.37574 15.6723 9.55777 14.536C9.69969 14.3998 10.0708 14.0397 10.0708 13.85V10.3078L10.0704 10.3073Z" fill="#3CEC88"/>
<path d="M7.41708 5.20283C7.4661 5.24534 7.50531 5.35869 7.55013 5.41536L7.55106 13.6013C7.47543 13.8792 7.32885 14.0447 7.12951 14.2398C5.85692 15.4849 4.30189 16.5681 3.08205 17.8643C2.85657 18.2702 2.96955 18.8324 2.95227 19.2913C2.9238 20.0541 2.92613 20.7859 2.93173 21.5496C2.93173 21.609 2.99942 21.6584 2.88131 21.6429L0.546206 20.135C0.323526 19.9444 0.15033 19.7017 0.0588303 19.4238C-0.0424729 16.623 0.0144809 13.7992 0.0298865 10.9911L0.398686 10.278C2.43268 8.75648 4.35278 7.08089 6.38257 5.55522C6.66828 5.3404 7.06789 4.90025 7.41708 5.20237V5.20283Z" fill="#3CEC88"/>
</g>
<path d="M36.9086 9.59918C38.3888 9.59918 39.5818 10.0781 40.4873 11.0359C41.3929 11.9937 41.8457 13.2824 41.8457 14.902V23H39.0245V15.0849C39.0245 14.1793 38.7981 13.4827 38.3453 12.9951C37.8925 12.4901 37.2743 12.2376 36.4906 12.2376C35.6199 12.2376 34.9233 12.5249 34.4008 13.0996C33.8958 13.6743 33.6433 14.5363 33.6433 15.6857V23H30.822V15.0849C30.822 14.1793 30.6044 13.4827 30.169 12.9951C29.751 12.4901 29.1502 12.2376 28.3665 12.2376C27.5132 12.2376 26.8166 12.5336 26.2767 13.1257C25.7369 13.7004 25.4669 14.5537 25.4669 15.6857V23H22.6457V9.93878H25.4669V11.5061C26.3029 10.2348 27.548 9.59918 29.2024 9.59918C30.8743 9.59918 32.1107 10.2871 32.9118 11.6629C33.7826 10.2871 35.1148 9.59918 36.9086 9.59918ZM54.4259 9.93878H57.2471V23H54.4259V21.1192C53.3636 22.5995 51.8398 23.3396 49.8545 23.3396C48.0607 23.3396 46.5282 22.6778 45.2569 21.3543C43.9856 20.0133 43.35 18.385 43.35 16.4694C43.35 14.5363 43.9856 12.908 45.2569 11.5845C46.5282 10.261 48.0607 9.59918 49.8545 9.59918C51.8398 9.59918 53.3636 10.3306 54.4259 11.7935V9.93878ZM47.3467 19.4735C48.1304 20.2571 49.1144 20.649 50.2986 20.649C51.4828 20.649 52.4667 20.2571 53.2504 19.4735C54.0341 18.6724 54.4259 17.671 54.4259 16.4694C54.4259 15.2678 54.0341 14.2751 53.2504 13.4914C52.4667 12.6903 51.4828 12.2898 50.2986 12.2898C49.1144 12.2898 48.1304 12.6903 47.3467 13.4914C46.5631 14.2751 46.1712 15.2678 46.1712 16.4694C46.1712 17.671 46.5631 18.6724 47.3467 19.4735ZM70.0963 4.71429H72.9175V23H70.0963V21.1192C69.034 22.5995 67.5102 23.3396 65.5249 23.3396C63.7312 23.3396 62.1986 22.6778 60.9273 21.3543C59.656 20.0133 59.0204 18.385 59.0204 16.4694C59.0204 14.5363 59.656 12.908 60.9273 11.5845C62.1986 10.261 63.7312 9.59918 65.5249 9.59918C67.5102 9.59918 69.034 10.3306 70.0963 11.7935V4.71429ZM63.0171 19.4735C63.8008 20.2571 64.7848 20.649 65.969 20.649C67.1532 20.649 68.1371 20.2571 68.9208 19.4735C69.7045 18.6724 70.0963 17.671 70.0963 16.4694C70.0963 15.2678 69.7045 14.2751 68.9208 13.4914C68.1371 12.6903 67.1532 12.2898 65.969 12.2898C64.7848 12.2898 63.8008 12.6903 63.0171 13.4914C62.2335 14.2751 61.8416 15.2678 61.8416 16.4694C61.8416 17.671 62.2335 18.6724 63.0171 19.4735ZM77.6426 17.671C77.8516 18.6637 78.3305 19.4299 79.0794 19.9698C79.8282 20.4922 80.7425 20.7535 81.8222 20.7535C83.3199 20.7535 84.4432 20.2136 85.192 19.1339L87.5169 20.4922C86.2282 22.3905 84.3213 23.3396 81.7961 23.3396C79.6715 23.3396 77.9561 22.6952 76.65 21.4065C75.3439 20.1004 74.6908 18.4547 74.6908 16.4694C74.6908 14.5189 75.3352 12.8906 76.6239 11.5845C77.9126 10.261 79.567 9.59918 81.5871 9.59918C83.5028 9.59918 85.0701 10.2697 86.2892 11.6106C87.5256 12.9516 88.1439 14.5799 88.1439 16.4955C88.1439 16.7916 88.109 17.1834 88.0394 17.671H77.6426ZM77.6165 15.3722H85.2965C85.105 14.3099 84.6609 13.5088 83.9643 12.969C83.2851 12.4291 82.484 12.1592 81.561 12.1592C80.5161 12.1592 79.6454 12.4465 78.9488 13.0212C78.2522 13.5959 77.8081 14.3796 77.6165 15.3722ZM97.2353 9.59918C99.029 9.59918 100.562 10.261 101.833 11.5845C103.104 12.908 103.74 14.5363 103.74 16.4694C103.74 18.385 103.104 20.0133 101.833 21.3543C100.562 22.6778 99.029 23.3396 97.2353 23.3396C95.25 23.3396 93.7262 22.5995 92.6639 21.1192V23H89.8426V4.71429H92.6639V11.7935C93.7262 10.3306 95.25 9.59918 97.2353 9.59918ZM93.8394 19.4735C94.6231 20.2571 95.607 20.649 96.7912 20.649C97.9754 20.649 98.9594 20.2571 99.7431 19.4735C100.527 18.6724 100.919 17.671 100.919 16.4694C100.919 15.2678 100.527 14.2751 99.7431 13.4914C98.9594 12.6903 97.9754 12.2898 96.7912 12.2898C95.607 12.2898 94.6231 12.6903 93.8394 13.4914C93.0557 14.2751 92.6639 15.2678 92.6639 16.4694C92.6639 17.671 93.0557 18.6724 93.8394 19.4735ZM113.806 9.93878H116.81L111.795 23.418C110.541 26.7965 108.416 28.3986 105.421 28.2245V25.5861C106.309 25.6384 107.023 25.4468 107.563 25.0114C108.103 24.5935 108.547 23.9317 108.895 23.0261L109.026 22.7649L103.488 9.93878H106.57L110.462 19.4212L113.806 9.93878ZM119.534 13.5437C119.534 13.979 119.769 14.3273 120.239 14.5886C120.727 14.8324 121.31 15.0501 121.989 15.2416C122.686 15.4158 123.382 15.6248 124.079 15.8686C124.776 16.1124 125.359 16.5303 125.829 17.1224C126.317 17.6971 126.561 18.4286 126.561 19.3167C126.561 20.5706 126.073 21.5546 125.098 22.2686C124.14 22.9826 122.93 23.3396 121.467 23.3396C120.178 23.3396 119.072 23.0697 118.149 22.5298C117.226 21.9899 116.556 21.2411 116.138 20.2833L118.567 18.8727C119.02 20.1265 119.986 20.7535 121.467 20.7535C122.947 20.7535 123.687 20.2659 123.687 19.2906C123.687 18.8727 123.443 18.5331 122.956 18.2718C122.486 18.0106 121.902 17.7929 121.206 17.6188C120.526 17.4272 119.838 17.2095 119.142 16.9657C118.445 16.7219 117.853 16.3214 117.366 15.7641C116.895 15.1894 116.66 14.4667 116.66 13.5959C116.66 12.3943 117.113 11.4278 118.019 10.6963C118.942 9.9649 120.082 9.59918 121.441 9.59918C122.52 9.59918 123.478 9.84299 124.314 10.3306C125.167 10.8008 125.82 11.4626 126.273 12.3159L123.896 13.6482C123.443 12.6555 122.625 12.1592 121.441 12.1592C120.901 12.1592 120.448 12.2811 120.082 12.5249C119.717 12.7513 119.534 13.0909 119.534 13.5437ZM128.104 23V3.93061H130.925V23H128.104ZM143.762 9.93878H146.583V23H143.762V21.1192C142.699 22.5995 141.175 23.3396 139.19 23.3396C137.396 23.3396 135.864 22.6778 134.593 21.3543C133.321 20.0133 132.686 18.385 132.686 16.4694C132.686 14.5363 133.321 12.908 134.593 11.5845C135.864 10.261 137.396 9.59918 139.19 9.59918C141.175 9.59918 142.699 10.3306 143.762 11.7935V9.93878ZM136.682 19.4735C137.466 20.2571 138.45 20.649 139.634 20.649C140.818 20.649 141.802 20.2571 142.586 19.4735C143.37 18.6724 143.762 17.671 143.762 16.4694C143.762 15.2678 143.37 14.2751 142.586 13.4914C141.802 12.6903 140.818 12.2898 139.634 12.2898C138.45 12.2898 137.466 12.6903 136.682 13.4914C135.899 14.2751 135.507 15.2678 135.507 16.4694C135.507 17.671 135.899 18.6724 136.682 19.4735ZM156.376 12.6555H153.137V18.9249C153.137 19.4648 153.258 19.8566 153.502 20.1004C153.746 20.3268 154.103 20.4574 154.573 20.4922C155.061 20.5097 155.662 20.501 156.376 20.4661V23C154.216 23.2612 152.666 23.0784 151.726 22.4514C150.786 21.8071 150.315 20.6316 150.315 18.9249V12.6555H147.912V9.93878H150.315V7.11755L153.137 6.28163V9.93878H156.376V12.6555ZM159.835 17.671C160.044 18.6637 160.523 19.4299 161.272 19.9698C162.021 20.4922 162.935 20.7535 164.015 20.7535C165.513 20.7535 166.636 20.2136 167.385 19.1339L169.71 20.4922C168.421 22.3905 166.514 23.3396 163.989 23.3396C161.864 23.3396 160.149 22.6952 158.843 21.4065C157.537 20.1004 156.884 18.4547 156.884 16.4694C156.884 14.5189 157.528 12.8906 158.817 11.5845C160.105 10.261 161.76 9.59918 163.78 9.59918C165.696 9.59918 167.263 10.2697 168.482 11.6106C169.718 12.9516 170.337 14.5799 170.337 16.4955C170.337 16.7916 170.302 17.1834 170.232 17.671H159.835ZM159.809 15.3722H167.489C167.298 14.3099 166.854 13.5088 166.157 12.969C165.478 12.4291 164.677 12.1592 163.754 12.1592C162.709 12.1592 161.838 12.4465 161.142 13.0212C160.445 13.5959 160.001 14.3796 159.809 15.3722Z" fill="white"/>
<defs>
<clipPath id="clip0_14_254">
<rect width="13" height="22" fill="white" transform="translate(0 5)"/>
</clipPath>
</defs>
<script xmlns=""/><script xmlns=""/></svg>